<svg width="100" height="94" viewBox="0 0 100 94" fill="none" xmlns="http://www.w3.org/2000/svg">
<g opacity="0.6" filter="url(#filter0_f_79_2162)">
<path d="M69.3095 46.9276C69.3095 56.0004 60.5206 63.3553 49.6789 63.3553C38.8372 63.3553 30.0482 56.0004 30.0482 46.9276C30.0482 37.8549 38.8372 30.5 49.6789 30.5C60.5206 30.5 69.3095 37.8549 69.3095 46.9276Z" fill="#FF7622"/>
</g>
<path d="M72 39.5C72 51.9264 61.9264 62 49.5 62C37.0736 62 27 51.9264 27 39.5C27 27.0736 37.0736 17 49.5 17C61.9264 17 72 27.0736 72 39.5Z" fill="#FF7622"/>
<path d="M56.9999 43.1901V45.4401C57.0008 45.6489 56.958 45.8557 56.8743 46.0471C56.7907 46.2385 56.6679 46.4103 56.514 46.5515C56.3601 46.6927 56.1784 46.8002 55.9805 46.8671C55.7826 46.934 55.573 46.9589 55.3649 46.9401C53.0571 46.6893 50.8402 45.9007 48.8924 44.6376C47.0803 43.4861 45.544 41.9497 44.3924 40.1376C43.1249 38.181 42.3361 35.9533 42.0899 33.6351C42.0712 33.4277 42.0959 33.2186 42.1623 33.0213C42.2288 32.8239 42.3356 32.6426 42.476 32.4888C42.6164 32.335 42.7873 32.2121 42.9778 32.128C43.1683 32.0438 43.3742 32.0003 43.5825 32.0001H45.8325C46.1964 31.9965 46.5493 32.1254 46.8253 32.3627C47.1012 32.6001 47.2815 32.9297 47.3324 33.2901C47.4274 34.0101 47.6035 34.7171 47.8575 35.3976C47.9584 35.666 47.9802 35.9578 47.9204 36.2382C47.8606 36.5187 47.7216 36.7762 47.5199 36.9801L46.5675 37.9326C47.6351 39.8102 49.1898 41.3649 51.0675 42.4326L52.0199 41.4801C52.2239 41.2784 52.4813 41.1395 52.7618 41.0796C53.0423 41.0198 53.334 41.0417 53.6024 41.1426C54.2829 41.3965 54.9899 41.5726 55.71 41.6676C56.0743 41.719 56.407 41.9025 56.6448 42.1832C56.8827 42.4639 57.0091 42.8223 56.9999 43.1901Z" stroke="white" stroke-width="2" stroke-linecap="round" stroke-linejoin="round"/>
<defs>
<filter id="filter0_f_79_2162" x="0.0482178" y="0.5" width="99.2612" height="92.8555" filterUnits="userSpaceOnUse" color-interpolation-filters="sRGB">
<feFlood flood-opacity="0" result="BackgroundImageFix"/>
<feBlend mode="normal" in="SourceGraphic" in2="BackgroundImageFix" result="shape"/>
<feGaussianBlur stdDeviation="15" result="effect1_foregroundBlur_79_2162"/>
</filter>
</defs>
</svg>
