<svg width="23" height="17" viewBox="0 0 23 17" fill="none" xmlns="http://www.w3.org/2000/svg">
<path d="M0 0.5V2.5H14V6.5V8.5V11.5H8.2207C7.67163 10.8907 6.88492 10.5 6 10.5C5.11508 10.5 4.32837 10.8907 3.7793 11.5H3V10.5L5 8.5H1V13.5H3C3 15.157 4.343 16.5 6 16.5C7.657 16.5 9 15.157 9 13.5H15C15 15.157 16.343 16.5 18 16.5C19.657 16.5 21 15.157 21 13.5H22H23V8.5L20.2754 3.05273C20.1064 2.71373 19.7618 2.5 19.3828 2.5H16V0.5H0ZM1 4.5V6.5H8V4.5H1ZM16 4.5H18.7637L19.7637 6.5H16V4.5ZM16 8.5H20.7637L21 8.97266V11.5H20.2207C19.6716 10.8907 18.8849 10.5 18 10.5C17.2279 10.5 16.5316 10.8002 16 11.2793V8.5ZM6 12.25C6.689 12.25 7.25 12.811 7.25 13.5C7.25 14.189 6.689 14.75 6 14.75C5.311 14.75 4.75 14.189 4.75 13.5C4.75 12.811 5.311 12.25 6 12.25ZM18 12.25C18.689 12.25 19.25 12.811 19.25 13.5C19.25 14.189 18.689 14.75 18 14.75C17.311 14.75 16.75 14.189 16.75 13.5C16.75 12.811 17.311 12.25 18 12.25Z" fill="#FF7622"/>
</svg>
