<svg width="16" height="16" viewBox="0 0 16 16" fill="none" xmlns="http://www.w3.org/2000/svg">
<path d="M9.34909 9.3492C9.17431 9.53676 8.96355 9.6872 8.72937 9.79155C8.49519 9.89589 8.24239 9.952 7.98606 9.95652C7.72972 9.96104 7.4751 9.91389 7.23739 9.81787C6.99967 9.72185 6.78373 9.57894 6.60245 9.39766C6.42116 9.21637 6.27825 9.00043 6.18223 8.76272C6.08622 8.525 6.03906 8.27038 6.04358 8.01405C6.04811 7.75771 6.10421 7.50492 6.20856 7.27074C6.3129 7.03655 6.46334 6.82579 6.65091 6.65101M11.78 11.7801C10.6922 12.6093 9.36761 13.0687 8 13.091C3.54545 13.091 1 8.0001 1 8.0001C1.79157 6.52495 2.88945 5.23613 4.22 4.2201L11.78 11.7801ZM6.66364 3.06192C7.10167 2.95939 7.55013 2.90814 8 2.9092C12.4545 2.9092 15 8.0001 15 8.0001C14.6137 8.72276 14.153 9.40312 13.6255 10.0301L6.66364 3.06192Z" stroke="#A0A5BA" stroke-width="1.5" stroke-linecap="round" stroke-linejoin="round"/>
<path d="M1 1L15 15" stroke="#A0A5BA" stroke-width="1.5" stroke-linecap="round" stroke-linejoin="round"/>
</svg>
