<svg width="25" height="24" viewBox="0 0 25 24" fill="none" xmlns="http://www.w3.org/2000/svg">
<path d="M18.75 8C18.75 6.4087 18.0915 4.88258 16.9194 3.75736C15.7473 2.63214 14.1576 2 12.5 2C10.8424 2 9.25268 2.63214 8.08058 3.75736C6.90848 4.88258 6.25 6.4087 6.25 8C6.25 15 3.125 17 3.125 17H21.875C21.875 17 18.75 15 18.75 8Z" stroke="#FF7622" stroke-width="1.5" stroke-linecap="round" stroke-linejoin="round"/>
<path d="M14.3019 21C14.1188 21.3031 13.8559 21.5547 13.5397 21.7295C13.2234 21.9044 12.8648 21.9965 12.4998 21.9965C12.1349 21.9965 11.7763 21.9044 11.46 21.7295C11.1438 21.5547 10.8809 21.3031 10.6978 21" stroke="#FF7622" stroke-width="1.5" stroke-linecap="round" stroke-linejoin="round"/>
</svg>
