<svg width="13" height="14" viewBox="0 0 13 14" fill="none" xmlns="http://www.w3.org/2000/svg">
<path d="M11.9166 4.42184C11.917 4.35055 11.9033 4.27988 11.8764 4.21389C11.8494 4.14789 11.8097 4.08787 11.7595 4.03726L9.46284 1.74059C9.41223 1.69039 9.35221 1.65067 9.28621 1.62371C9.22022 1.59676 9.14955 1.58309 9.07826 1.58351C9.00697 1.58309 8.93631 1.59676 8.87031 1.62371C8.80432 1.65067 8.74429 1.69039 8.69368 1.74059L7.16076 3.27351L1.24034 9.19392C1.19014 9.24454 1.15042 9.30456 1.12347 9.37056C1.09651 9.43655 1.08285 9.50722 1.08326 9.57851V11.8752C1.08326 12.0188 1.14033 12.1566 1.24191 12.2582C1.34349 12.3598 1.48127 12.4168 1.62493 12.4168H3.92159C3.99739 12.421 4.0732 12.4091 4.14412 12.382C4.21504 12.355 4.27948 12.3133 4.33326 12.2598L10.2212 6.33934L11.7595 4.83351C11.809 4.78101 11.8492 4.72059 11.8787 4.65476C11.8839 4.61158 11.8839 4.56793 11.8787 4.52476C11.8812 4.49954 11.8812 4.47414 11.8787 4.44892L11.9166 4.42184ZM3.69951 11.3335H2.16659V9.80059L7.54534 4.42184L9.07826 5.95476L3.69951 11.3335ZM9.84201 5.19101L8.30909 3.65809L9.07826 2.89434L10.6058 4.42184L9.84201 5.19101Z" fill="#32343E"/>
</svg>
