<svg width="22" height="21" viewBox="0 0 22 21" fill="none" xmlns="http://www.w3.org/2000/svg">
<mask id="path-1-inside-1_79_2844" fill="white">
<path d="M10.7881 0.0932617L14.0809 6.76421L21.4445 7.84051L16.1163 13.0302L17.3738 20.3619L10.7881 16.8985L4.20236 20.3619L5.45982 13.0302L0.131592 7.84051L7.49521 6.76421L10.7881 0.0932617Z"/>
</mask>
<path d="M10.7881 0.0932617L23.6883 -6.27443C21.2646 -11.1845 16.2637 -14.293 10.7881 -14.293C5.31239 -14.293 0.311485 -11.1845 -2.11218 -6.27443L10.7881 0.0932617ZM14.0809 6.76421L1.18067 13.1319C3.27444 17.3736 7.31963 20.315 12.0003 20.9992L14.0809 6.76421ZM21.4445 7.84051L31.4823 18.1462C35.4042 14.3262 36.818 8.61125 35.1294 3.40333C33.4407 -1.8046 28.9425 -5.60264 23.5252 -6.39446L21.4445 7.84051ZM16.1163 13.0302L6.07855 2.72452C2.68521 6.02963 1.13636 10.7934 1.9371 15.4621L16.1163 13.0302ZM17.3738 20.3619L10.6777 33.0947C15.5246 35.6437 21.3984 35.2197 25.829 32.0011C30.2597 28.7825 32.4787 23.3275 31.5529 17.93L17.3738 20.3619ZM10.7881 16.8985L17.4841 4.16564C13.2922 1.96116 8.28387 1.96116 4.09197 4.16564L10.7881 16.8985ZM4.20236 20.3619L-9.97683 17.93C-10.9026 23.3275 -8.68356 28.7825 -4.25292 32.0011C0.177727 35.2197 6.0515 35.6437 10.8984 33.0947L4.20236 20.3619ZM5.45982 13.0302L19.639 15.4621C20.4398 10.7934 18.8909 6.02962 15.4976 2.72452L5.45982 13.0302ZM0.131592 7.84051L-1.94906 -6.39446C-7.36634 -5.60264 -11.8646 -1.8046 -13.5533 3.40333C-15.2419 8.61125 -13.8281 14.3262 -9.90615 18.1462L0.131592 7.84051ZM7.49521 6.76421L9.57586 20.9992C14.2565 20.315 18.3017 17.3736 20.3954 13.1319L7.49521 6.76421ZM-2.11218 6.46095L1.18067 13.1319L26.9811 0.39652L23.6883 -6.27443L-2.11218 6.46095ZM12.0003 20.9992L19.3639 22.0755L23.5252 -6.39446L16.1616 -7.47076L12.0003 20.9992ZM11.4068 -2.46518L6.07855 2.72452L26.154 23.3359L31.4823 18.1462L11.4068 -2.46518ZM1.9371 15.4621L3.19456 22.7938L31.5529 17.93L30.2955 10.5983L1.9371 15.4621ZM24.0698 7.62899L17.4841 4.16564L4.09197 29.6314L10.6777 33.0947L24.0698 7.62899ZM4.09197 4.16564L-2.49373 7.62899L10.8984 33.0947L17.4841 29.6314L4.09197 4.16564ZM18.3815 22.7938L19.639 15.4621L-8.71936 10.5983L-9.97683 17.93L18.3815 22.7938ZM15.4976 2.72452L10.1693 -2.46518L-9.90615 18.1462L-4.57792 23.3359L15.4976 2.72452ZM2.21225 22.0755L9.57586 20.9992L5.41455 -7.47076L-1.94906 -6.39446L2.21225 22.0755ZM20.3954 13.1319L23.6883 6.46095L-2.11218 -6.27443L-5.40503 0.39652L20.3954 13.1319Z" fill="#FB6D3A" mask="url(#path-1-inside-1_79_2844)"/>
</svg>
