<svg width="78" height="50" viewBox="0 0 78 50" fill="none" xmlns="http://www.w3.org/2000/svg">
<circle cx="67.0554" cy="25.4135" r="8.57322" stroke="#E8E8E8" stroke-width="0.45928" stroke-linecap="round" stroke-linejoin="round" stroke-dasharray="0.62 1.85"/>
<path fill-rule="evenodd" clip-rule="evenodd" d="M23.9604 43.9572C23.9604 43.8042 24.0845 43.6802 24.2374 43.6802H28.4552C28.6082 43.6802 28.7322 43.8042 28.7322 43.9572C28.7322 44.1102 28.6082 44.2342 28.4552 44.2342H24.2374C24.0845 44.2342 23.9604 44.1102 23.9604 43.9572Z" fill="#FF7622"/>
<path fill-rule="evenodd" clip-rule="evenodd" d="M43.3535 43.9572C43.3535 43.8042 43.4775 43.6802 43.6305 43.6802H47.8483C48.0013 43.6802 48.1253 43.8042 48.1253 43.9572C48.1253 44.1102 48.0013 44.2342 47.8483 44.2342H43.6305C43.4775 44.2342 43.3535 44.1102 43.3535 43.9572Z" fill="#FF7622"/>
<path fill-rule="evenodd" clip-rule="evenodd" d="M20.592 46.2023C20.592 46.0493 20.7161 45.9253 20.869 45.9253L28.4551 45.9253C28.6081 45.9253 28.7321 46.0493 28.7321 46.2023C28.7321 46.3553 28.6081 46.4793 28.4551 46.4793L20.869 46.4793C20.7161 46.4793 20.592 46.3553 20.592 46.2023Z" fill="#FF7622"/>
<path fill-rule="evenodd" clip-rule="evenodd" d="M39.9854 46.2023C39.9854 46.0493 40.1094 45.9253 40.2624 45.9253L47.8484 45.9253C48.0014 45.9253 48.1254 46.0493 48.1254 46.2023C48.1254 46.3553 48.0014 46.4793 47.8484 46.4793L40.2624 46.4793C40.1094 46.4793 39.9854 46.3553 39.9854 46.2023Z" fill="#FF7622"/>
<path fill-rule="evenodd" clip-rule="evenodd" d="M23.9604 48.4479C23.9604 48.2949 24.0845 48.1709 24.2374 48.1709L31.8235 48.1709C31.9765 48.1709 32.1005 48.2949 32.1005 48.4479C32.1005 48.6009 31.9765 48.7249 31.8235 48.7249L24.2374 48.7249C24.0845 48.7249 23.9604 48.6009 23.9604 48.4479Z" fill="#FF7622"/>
<path fill-rule="evenodd" clip-rule="evenodd" d="M43.3535 48.4479C43.3535 48.2949 43.4775 48.1709 43.6305 48.1709L51.2166 48.1709C51.3696 48.1709 51.4936 48.2949 51.4936 48.4479C51.4936 48.6009 51.3696 48.7249 51.2166 48.7249L43.6305 48.7249C43.4775 48.7249 43.3535 48.6009 43.3535 48.4479Z" fill="#FF7622"/>
<path d="M50.8273 16.6873C51.5037 16.6873 52.0579 16.1377 51.9958 15.4642C51.7115 12.3803 50.3589 9.47711 48.151 7.26924C45.6532 4.77142 42.2654 3.36816 38.733 3.36816C35.2005 3.36816 31.8127 4.77142 29.3149 7.26924C27.1071 9.47711 25.7544 12.3803 25.4701 15.4642C25.408 16.1377 25.9622 16.6873 26.6386 16.6873L38.733 16.6873H50.8273Z" fill="#FF7622"/>
<path d="M40.4171 2.44942C40.4171 3.46404 39.6632 4.28654 38.7331 4.28654C37.803 4.28654 37.0491 3.46404 37.0491 2.44942C37.0491 1.43481 37.803 0.612305 38.7331 0.612305C39.6632 0.612305 40.4171 1.43481 40.4171 2.44942Z" fill="white"/>
<path fill-rule="evenodd" clip-rule="evenodd" d="M38.7332 1.22475C38.1904 1.22475 37.6615 1.72184 37.6615 2.44949C37.6615 3.17715 38.1904 3.67424 38.7332 3.67424C39.276 3.67424 39.8048 3.17715 39.8048 2.44949C39.8048 1.72184 39.276 1.22475 38.7332 1.22475ZM36.4368 2.44949C36.4368 1.14792 37.4158 0 38.7332 0C40.0505 0 41.0296 1.14792 41.0296 2.44949C41.0296 3.75106 40.0505 4.89898 38.7332 4.89898C37.4158 4.89898 36.4368 3.75106 36.4368 2.44949Z" fill="#FF7622"/>
<path d="M33.2944 7.50176C33.1459 7.25504 32.8257 7.17263 32.5842 7.32955C30.7584 8.51597 29.3255 10.2049 28.4632 12.1863C28.3456 12.4567 28.4874 12.7652 28.7641 12.867C29.0373 12.9675 29.3391 12.8283 29.4564 12.5619C30.2301 10.8041 31.5011 9.30301 33.1169 8.23889C33.3616 8.07774 33.4456 7.75275 33.2944 7.50176Z" fill="white"/>
<path d="M35.4224 6.55172C35.3317 6.27821 35.0369 6.12781 34.7671 6.22885C34.4779 6.33709 34.1935 6.45712 33.9145 6.58862C33.6497 6.71342 33.5535 7.03654 33.6936 7.29352C33.8315 7.54635 34.1466 7.63985 34.4075 7.51806C34.6313 7.41361 34.8589 7.31731 35.0899 7.22934C35.3623 7.12558 35.5142 6.82841 35.4224 6.55172Z" fill="white"/>
<path d="M8.53632 41.5614C6.75917 41.5614 5.21165 41.2918 3.89376 40.7527C2.59584 40.2136 1.40774 39.3649 0.329472 38.2068L3.71405 34.7923C4.45286 35.571 5.2416 36.17 6.08026 36.5894C6.91891 36.9887 7.86739 37.1884 8.9257 37.1884C9.82426 37.1884 10.5132 37.0387 10.9924 36.7391C11.4916 36.4196 11.7412 35.9903 11.7412 35.4512C11.7412 34.952 11.5615 34.5427 11.202 34.2232C10.8426 33.8837 10.3634 33.5942 9.76435 33.3546C9.18528 33.095 8.53632 32.8554 7.81747 32.6357C7.11859 32.3961 6.40973 32.1165 5.69088 31.7971C4.992 31.4576 4.34304 31.0483 3.744 30.569C3.16493 30.0898 2.69568 29.4907 2.33626 28.7719C1.97683 28.0531 1.79712 27.1645 1.79712 26.1062C1.79712 24.7483 2.11661 23.5902 2.75558 22.6317C3.41453 21.6733 4.32307 20.9345 5.48122 20.4153C6.63936 19.8961 7.9872 19.6365 9.52474 19.6365C11.0623 19.6365 12.48 19.8961 13.7779 20.4153C15.0758 20.9345 16.1441 21.6533 16.9828 22.5718L13.5683 25.9564C12.9293 25.3174 12.2803 24.8382 11.6214 24.5187C10.9624 24.1992 10.2436 24.0395 9.46483 24.0395C8.72602 24.0395 8.14694 24.1693 7.72762 24.4289C7.30829 24.6884 7.09862 25.0579 7.09862 25.5371C7.09862 26.0163 7.27834 26.4057 7.63776 26.7052C7.99718 27.0047 8.46643 27.2743 9.0455 27.5139C9.64454 27.7336 10.2935 27.9632 10.9924 28.2028C11.7112 28.4424 12.4201 28.722 13.119 29.0415C13.8179 29.361 14.4568 29.7703 15.0359 30.2695C15.6349 30.7687 16.1142 31.3977 16.4736 32.1565C16.833 32.9153 17.0127 33.8338 17.0127 34.9121C17.0127 37.0287 16.2639 38.666 14.7663 39.8242C13.2887 40.9823 11.212 41.5614 8.53632 41.5614ZM55.495 41.2319L63.7318 19.996H68.9135L77.0604 41.2319H71.4594L65.3192 23.3805H67.2661L60.9762 41.2319H55.495ZM60.497 37.5179V33.2647H72.2082V37.5179H60.497Z" fill="white"/>
<path d="M19.7295 41.2319V19.996H25.0909V41.2319H19.7295ZM23.9827 41.2319V36.7092H35.4842V41.2319H23.9827ZM23.9827 32.6058V28.2028H34.406V32.6058H23.9827ZM23.9827 24.5187V19.996H35.3045V24.5187H23.9827ZM44.5382 41.2319L36.541 19.996H42.2618L48.2522 37.1585H45.7961L51.8764 19.996H57.4774L49.3904 41.2319H44.5382Z" fill="#FF7622"/>
</svg>
